<svg version="1.1" id="Layer_1" xmlns="http://www.w3.org/2000/svg" xmlns:xlink="http://www.w3.org/1999/xlink" x="0px" y="0px"
	 width="100%" viewBox="0 0 800 500" enable-background="new 0 0 800 500" xml:space="preserve">
<path fill="#010101" opacity="1.000000" stroke="none" 
	d="
M586.000000,501.000000 
	C390.666656,501.000000 195.833328,501.000000 1.000000,501.000000 
	C1.000000,334.333344 1.000000,167.666672 1.000000,1.000000 
	C267.666656,1.000000 534.333313,1.000000 801.000000,1.000000 
	C801.000000,167.666672 801.000000,334.333344 801.000000,501.000000 
	C729.500000,501.000000 658.000000,501.000000 586.000000,501.000000 
M476.597778,78.068199 
	C418.486481,51.731812 361.523926,53.731422 306.945374,87.081520 
	C272.710144,108.000877 249.740158,138.458984 243.533142,178.720779 
	C235.091400,233.478088 256.817749,276.135773 300.893494,307.803589 
	C333.782776,331.434082 371.080933,340.556061 411.388855,337.973907 
	C447.557648,335.656952 480.212067,323.898804 507.908447,300.419464 
	C547.372986,266.963776 565.258240,224.671082 554.398865,173.116913 
	C545.066833,128.813843 516.745239,98.769119 476.597778,78.068199 
M84.296089,428.702271 
	C81.712517,424.655487 79.128944,420.608673 76.038582,415.768066 
	C73.832291,416.381744 70.441811,417.324829 67.114418,418.250366 
	C70.423225,439.326935 85.892662,443.714386 102.410484,439.385071 
	C110.906532,437.158234 115.653564,429.705322 114.651169,421.171692 
	C113.750191,413.501434 108.455620,409.287964 101.745964,406.740631 
	C96.322105,404.681519 90.605919,403.354431 85.286682,401.078064 
	C83.400993,400.271057 80.926598,397.388092 81.183388,395.869171 
	C81.532234,393.805908 83.907860,391.342712 86.007500,390.456268 
	C92.493851,387.717804 99.439079,390.514069 102.832497,397.001587 
	C104.184570,399.586456 105.561668,400.440979 108.279671,399.370697 
	C110.247185,398.595886 112.329536,398.112762 114.331322,397.508453 
	C110.571030,380.501617 88.646996,372.928772 75.675529,383.812134 
	C70.176994,388.425446 68.558273,395.581543 71.350349,402.334778 
	C73.543190,407.638580 78.111885,409.925049 83.045349,411.666992 
	C88.205643,413.489044 93.676567,414.599396 98.563988,416.951263 
	C100.816956,418.035400 103.440453,421.449463 103.270439,423.599487 
	C103.099487,425.761414 99.924835,428.930115 97.607132,429.402069 
	C93.591728,430.219696 89.221939,429.296967 84.296089,428.702271 
M234.450378,414.107086 
	C234.967590,416.713867 235.299332,419.374084 236.032883,421.918488 
	C240.016327,435.735077 252.067093,443.187042 265.899323,440.492432 
	C278.509460,438.035919 287.497467,424.783112 285.756287,411.069977 
	C277.528442,411.069977 269.288025,411.069977 260.909485,411.069977 
	C260.909485,414.242981 260.909485,417.109375 260.909485,420.583130 
	C265.175323,420.583130 269.037689,420.583130 273.097778,420.583130 
	C270.555298,427.238098 266.145203,430.640564 260.341278,430.716583 
	C254.271011,430.796051 250.196472,427.551971 247.938766,422.272980 
	C244.441666,414.096039 244.428680,405.692474 248.116409,397.575195 
	C251.840942,389.376892 261.343475,386.854797 268.151733,392.165924 
	C270.317749,393.855621 271.925293,396.261230 274.018188,398.595581 
	C276.977448,397.192627 280.041260,395.740082 283.093872,394.292877 
	C274.100281,374.961090 249.568909,374.451019 239.220291,391.112305 
	C235.036880,397.847565 233.955521,405.390869 234.450378,414.107086 
M371.231415,383.234131 
	C356.090546,374.449493 338.724640,380.791901 333.431122,397.320129 
	C330.350861,406.937836 330.640198,416.626923 334.689941,426.034515 
	C341.882111,442.741882 364.572235,446.306610 376.466187,432.620270 
	C387.013000,420.484131 386.293640,392.970795 371.231415,383.234131 
M200.429077,380.414337 
	C194.850082,380.414337 189.271103,380.414337 183.736542,380.414337 
	C183.736542,400.571594 183.736542,419.831635 183.736542,439.209473 
	C187.171844,439.209473 190.347336,439.209473 193.874176,439.209473 
	C193.874176,432.829834 193.874176,426.886353 193.874176,421.020264 
	C201.981171,419.532867 201.982132,419.532410 205.277115,426.266937 
	C206.374573,428.510010 207.462997,430.757446 208.560181,433.000641 
	C212.215912,440.474609 213.732742,441.119171 222.876266,438.770996 
	C219.719849,432.161896 216.599319,425.627930 213.522690,419.185883 
	C222.451935,410.906189 225.230698,400.547546 221.415253,390.854858 
	C217.747665,381.537659 210.053177,380.090881 200.429077,380.414337 
M130.668259,384.042999 
	C130.668259,402.481567 130.668259,420.920105 130.668259,439.432922 
	C142.886032,439.432922 154.470215,439.432922 166.219040,439.432922 
	C166.219040,435.904633 166.219040,432.682098 166.219040,428.982971 
	C157.959473,428.982971 150.033905,428.982971 141.842255,428.982971 
	C141.842255,424.298370 141.842255,420.097687 141.842255,415.457825 
	C148.462708,415.457825 154.727249,415.457825 161.212173,415.457825 
	C161.212173,411.670563 161.212173,408.329407 161.212173,404.599365 
	C154.551804,404.599365 148.289185,404.599365 141.759872,404.599365 
	C141.759872,399.970337 141.759872,395.735901 141.759872,390.875610 
	C150.067612,390.875610 158.116989,390.875610 166.295624,390.875610 
	C166.295624,387.162964 166.295624,384.078857 166.295624,380.447968 
	C154.923065,380.447968 143.807877,380.399933 132.695770,380.563904 
	C132.007996,380.574036 131.344833,382.252716 130.668259,384.042999 
M593.697083,400.836395 
	C589.837585,413.577209 585.978088,426.318054 582.068787,439.223267 
	C592.410583,440.236176 592.410706,440.236206 595.050659,431.782074 
	C595.644348,429.880707 596.032043,427.876892 596.909668,426.117340 
	C597.397766,425.138947 598.686768,423.938507 599.639954,423.916290 
	C605.109253,423.788879 611.143738,422.641174 615.843872,424.592224 
	C618.512268,425.699890 619.002869,432.060425 620.464661,436.058807 
	C620.635498,436.525909 620.597595,437.176422 620.911255,437.463715 
	C621.790100,438.268829 622.744263,439.427032 623.773499,439.546906 
	C626.336731,439.845459 628.958130,439.645203 632.068359,439.645203 
	C631.524963,437.523376 631.217529,436.102814 630.797546,434.716309 
	C626.271484,419.774963 621.742371,404.834473 617.183411,389.903107 
	C614.251343,380.300079 614.224548,380.502869 604.276550,380.307434 
	C600.671204,380.236633 599.359680,381.583740 598.539246,384.809143 
	C597.230835,389.952850 595.473328,394.982300 593.697083,400.836395 
M720.157043,389.060089 
	C717.321838,380.376282 717.321838,380.376343 708.136230,380.411682 
	C707.803040,380.412964 707.463806,380.453674 707.137695,380.405762 
	C704.132141,379.964142 702.795349,381.214569 701.944641,384.225677 
	C699.056030,394.450775 695.782776,404.566956 692.676575,414.730865 
	C690.216370,422.781128 687.785950,430.840454 685.208008,439.338257 
	C689.032776,439.338257 692.283752,439.338257 695.405090,439.338257 
	C697.526917,434.199249 698.296692,427.012329 702.114624,424.547974 
	C706.130676,421.955780 713.062805,423.876984 718.720764,423.844543 
	C719.036499,423.842743 719.353088,424.009705 720.000366,424.190674 
	C721.280029,428.266785 722.422546,432.594635 724.065247,436.723480 
	C724.565552,437.980865 726.332886,439.250702 727.715942,439.524353 
	C730.039001,439.983978 732.519043,439.650177 735.581116,439.650177 
	C730.319458,422.479156 725.319397,406.161804 720.157043,389.060089 
M451.143433,423.797089 
	C456.327362,424.150360 455.172607,428.787903 456.130524,431.676910 
	C459.057678,440.505371 458.879150,440.564575 469.000549,439.156067 
	C468.594360,437.395935 468.297729,435.639008 467.781769,433.949036 
	C463.337372,419.391357 458.850647,404.846619 454.382050,390.296326 
	C451.288940,380.224915 451.292114,380.377411 440.879456,380.327820 
	C437.699036,380.312683 436.681396,381.503418 435.850739,384.332550 
	C432.073029,397.199738 428.016479,409.984863 424.097107,422.810760 
	C422.437164,428.242950 420.868011,433.702881 419.160675,439.478027 
	C422.995453,439.478027 426.129883,439.478027 429.663635,439.478027 
	C431.000885,435.368500 432.157471,431.066711 433.862091,426.994324 
	C434.433990,425.628021 436.326355,424.082123 437.746185,423.941559 
	C441.866486,423.533539 446.053192,423.796509 451.143433,423.797089 
M533.501038,384.972534 
	C521.715942,396.829254 520.381775,419.186432 530.831482,432.204315 
	C537.402893,440.390686 546.339722,442.342438 556.007690,440.062500 
	C565.534546,437.815826 571.032288,431.082031 573.729675,421.327484 
	C570.062683,420.282257 566.807007,419.354248 563.620117,418.445862 
	C562.592651,420.793793 561.895264,422.649170 560.992859,424.398712 
	C558.641113,428.958466 554.661499,431.422150 549.712830,431.421509 
	C544.580566,431.420837 540.224731,429.008148 538.063416,424.164337 
	C533.935303,414.912476 533.962891,405.409454 537.977661,396.155548 
	C540.047668,391.384186 544.164612,388.855164 549.498535,388.818115 
	C554.835999,388.781006 558.690186,391.367432 561.148499,395.994415 
	C562.134888,397.851013 562.783020,399.887299 563.726257,402.185638 
	C567.190918,401.540649 570.498718,400.924866 573.798279,400.310608 
	C570.199341,380.895935 550.288208,373.271088 533.501038,384.972534 
M655.302429,410.500183 
	C655.302429,400.588257 655.302429,390.676300 655.302429,380.760864 
	C651.328369,380.760864 648.085327,380.760864 644.754395,380.760864 
	C644.754395,400.501587 644.754395,419.872162 644.754395,439.283600 
	C655.942017,439.283600 666.804626,439.283600 678.048218,439.283600 
	C678.048218,437.763702 678.038818,436.627380 678.049744,435.491241 
	C678.112854,428.957977 678.114502,428.958649 671.679626,428.959808 
	C666.414612,428.960785 661.149597,428.959991 655.302368,428.959991 
	C655.302368,422.721405 655.302368,417.110931 655.302429,410.500183 
M490.578766,439.655426 
	C498.683075,439.655426 506.787415,439.655426 515.113831,439.655426 
	C515.241577,437.802307 515.219910,436.488495 515.439575,435.216339 
	C516.301575,430.224091 514.516602,428.364746 509.276093,428.862793 
	C503.923798,429.371490 498.485565,428.975433 492.654785,428.975433 
	C492.654785,412.489471 492.654785,396.747131 492.654785,380.831879 
	C488.847015,380.831879 485.493561,380.831879 482.287415,380.831879 
	C482.287415,400.627838 482.287415,419.997070 482.287415,439.655396 
	C484.984283,439.655396 487.296051,439.655396 490.578766,439.655426 
M303.555725,411.499634 
	C303.555725,420.756683 303.555725,430.013733 303.555725,439.363770 
	C307.406158,439.363770 310.627808,439.363770 313.882690,439.363770 
	C313.882690,419.639618 313.882690,400.257904 313.882690,380.810181 
	C310.399872,380.810181 307.184845,380.810181 303.555786,380.810181 
	C303.555786,390.951294 303.555786,400.725464 303.555725,411.499634 
z"/>
<path fill="#F4F4F4" opacity="1.000000" stroke="none" 
	d="
M476.930359,78.237228 
	C516.745239,98.769119 545.066833,128.813843 554.398865,173.116913 
	C565.258240,224.671082 547.372986,266.963776 507.908447,300.419464 
	C480.212067,323.898804 447.557648,335.656952 411.388855,337.973907 
	C371.080933,340.556061 333.782776,331.434082 300.893494,307.803589 
	C256.817749,276.135773 235.091400,233.478088 243.533142,178.720779 
	C249.740158,138.458984 272.710144,108.000877 306.945374,87.081520 
	C361.523926,53.731422 418.486481,51.731812 476.930359,78.237228 
M531.995483,148.612183 
	C528.683350,143.224243 525.775146,137.533035 521.994019,132.497238 
	C496.067535,97.967674 460.817444,79.558655 418.471802,74.989090 
	C371.083466,69.875351 328.297302,81.469284 292.958618,114.605110 
	C241.176758,163.159119 242.002884,238.248611 294.530060,286.077332 
	C323.566559,312.516541 358.317627,324.914886 397.205200,325.286163 
	C440.715973,325.701508 479.033783,312.026917 510.163757,280.658447 
	C545.625793,244.924820 554.192871,194.099701 531.995483,148.612183 
z"/>
<path fill="#F3F3F3" opacity="1.000000" stroke="none" 
	d="
M84.648438,428.903229 
	C89.221939,429.296967 93.591728,430.219696 97.607132,429.402069 
	C99.924835,428.930115 103.099487,425.761414 103.270439,423.599487 
	C103.440453,421.449463 100.816956,418.035400 98.563988,416.951263 
	C93.676567,414.599396 88.205643,413.489044 83.045349,411.666992 
	C78.111885,409.925049 73.543190,407.638580 71.350349,402.334778 
	C68.558273,395.581543 70.176994,388.425446 75.675529,383.812134 
	C88.646996,372.928772 110.571030,380.501617 114.331322,397.508453 
	C112.329536,398.112762 110.247185,398.595886 108.279671,399.370697 
	C105.561668,400.440979 104.184570,399.586456 102.832497,397.001587 
	C99.439079,390.514069 92.493851,387.717804 86.007500,390.456268 
	C83.907860,391.342712 81.532234,393.805908 81.183388,395.869171 
	C80.926598,397.388092 83.400993,400.271057 85.286682,401.078064 
	C90.605919,403.354431 96.322105,404.681519 101.745964,406.740631 
	C108.455620,409.287964 113.750191,413.501434 114.651169,421.171692 
	C115.653564,429.705322 110.906532,437.158234 102.410484,439.385071 
	C85.892662,443.714386 70.423225,439.326935 67.114418,418.250366 
	C70.441811,417.324829 73.832291,416.381744 76.038582,415.768066 
	C79.128944,420.608673 81.712517,424.655487 84.648438,428.903229 
z"/>
<path fill="#F4F4F4" opacity="1.000000" stroke="none" 
	d="
M234.420685,413.654633 
	C233.955521,405.390869 235.036880,397.847565 239.220291,391.112305 
	C249.568909,374.451019 274.100281,374.961090 283.093872,394.292877 
	C280.041260,395.740082 276.977448,397.192627 274.018188,398.595581 
	C271.925293,396.261230 270.317749,393.855621 268.151733,392.165924 
	C261.343475,386.854797 251.840942,389.376892 248.116409,397.575195 
	C244.428680,405.692474 244.441666,414.096039 247.938766,422.272980 
	C250.196472,427.551971 254.271011,430.796051 260.341278,430.716583 
	C266.145203,430.640564 270.555298,427.238098 273.097778,420.583130 
	C269.037689,420.583130 265.175323,420.583130 260.909485,420.583130 
	C260.909485,417.109375 260.909485,414.242981 260.909485,411.069977 
	C269.288025,411.069977 277.528442,411.069977 285.756287,411.069977 
	C287.497467,424.783112 278.509460,438.035919 265.899323,440.492432 
	C252.067093,443.187042 240.016327,435.735077 236.032883,421.918488 
	C235.299332,419.374084 234.967590,416.713867 234.420685,413.654633 
z"/>
<path fill="#F5F5F5" opacity="1.000000" stroke="none" 
	d="
M371.536682,383.431519 
	C386.293640,392.970795 387.013000,420.484131 376.466187,432.620270 
	C364.572235,446.306610 341.882111,442.741882 334.689941,426.034515 
	C330.640198,416.626923 330.350861,406.937836 333.431122,397.320129 
	C338.724640,380.791901 356.090546,374.449493 371.536682,383.431519 
M352.181244,429.603271 
	C360.132477,432.195770 366.953735,429.647400 369.980438,422.467773 
	C373.408630,414.335724 373.468292,405.912842 370.029816,397.799988 
	C366.066071,388.447845 354.066437,386.649170 347.421295,394.004181 
	C340.638885,401.511047 340.509247,424.253235 352.181244,429.603271 
z"/>
<path fill="#F3F3F3" opacity="1.000000" stroke="none" 
	d="
M200.913528,380.414429 
	C210.053177,380.090881 217.747665,381.537659 221.415253,390.854858 
	C225.230698,400.547546 222.451935,410.906189 213.522690,419.185883 
	C216.599319,425.627930 219.719849,432.161896 222.876266,438.770996 
	C213.732742,441.119171 212.215912,440.474609 208.560181,433.000641 
	C207.462997,430.757446 206.374573,428.510010 205.277115,426.266937 
	C201.982132,419.532410 201.981171,419.532867 193.874176,421.020264 
	C193.874176,426.886353 193.874176,432.829834 193.874176,439.209473 
	C190.347336,439.209473 187.171844,439.209473 183.736542,439.209473 
	C183.736542,419.831635 183.736542,400.571594 183.736542,380.414337 
	C189.271103,380.414337 194.850082,380.414337 200.913528,380.414429 
M207.916794,391.225128 
	C203.298935,390.604187 198.681061,389.983246 194.048889,389.360382 
	C194.048889,397.143890 194.048889,403.712219 194.048889,410.960968 
	C200.114182,410.065857 206.790359,413.278473 210.819168,406.248718 
	C213.544785,401.492920 212.603821,396.132935 207.916794,391.225128 
z"/>
<path fill="#F2F2F2" opacity="1.000000" stroke="none" 
	d="
M130.669250,383.599060 
	C131.344833,382.252716 132.007996,380.574036 132.695770,380.563904 
	C143.807877,380.399933 154.923065,380.447968 166.295624,380.447968 
	C166.295624,384.078857 166.295624,387.162964 166.295624,390.875610 
	C158.116989,390.875610 150.067612,390.875610 141.759872,390.875610 
	C141.759872,395.735901 141.759872,399.970337 141.759872,404.599365 
	C148.289185,404.599365 154.551804,404.599365 161.212173,404.599365 
	C161.212173,408.329407 161.212173,411.670563 161.212173,415.457825 
	C154.727249,415.457825 148.462708,415.457825 141.842255,415.457825 
	C141.842255,420.097687 141.842255,424.298370 141.842255,428.982971 
	C150.033905,428.982971 157.959473,428.982971 166.219040,428.982971 
	C166.219040,432.682098 166.219040,435.904633 166.219040,439.432922 
	C154.470215,439.432922 142.886032,439.432922 130.668259,439.432922 
	C130.668259,420.920105 130.668259,402.481567 130.669250,383.599060 
z"/>
<path fill="#F2F2F2" opacity="1.000000" stroke="none" 
	d="
M593.801392,400.448212 
	C595.473328,394.982300 597.230835,389.952850 598.539246,384.809143 
	C599.359680,381.583740 600.671204,380.236633 604.276550,380.307434 
	C614.224548,380.502869 614.251343,380.300079 617.183411,389.903107 
	C621.742371,404.834473 626.271484,419.774963 630.797546,434.716309 
	C631.217529,436.102814 631.524963,437.523376 632.068359,439.645203 
	C628.958130,439.645203 626.336731,439.845459 623.773499,439.546906 
	C622.744263,439.427032 621.790100,438.268829 620.911255,437.463715 
	C620.597595,437.176422 620.635498,436.525909 620.464661,436.058807 
	C619.002869,432.060425 618.512268,425.699890 615.843872,424.592224 
	C611.143738,422.641174 605.109253,423.788879 599.639954,423.916290 
	C598.686768,423.938507 597.397766,425.138947 596.909668,426.117340 
	C596.032043,427.876892 595.644348,429.880707 595.050659,431.782074 
	C592.410706,440.236206 592.410583,440.236176 582.068787,439.223267 
	C585.978088,426.318054 589.837585,413.577209 593.801392,400.448212 
M610.239380,402.241669 
	C609.354614,399.543823 608.469910,396.845978 607.585205,394.148102 
	C607.234680,394.161987 606.884155,394.175873 606.533630,394.189728 
	C604.695923,400.358612 602.858276,406.527466 600.940308,412.965820 
	C605.482117,412.965820 609.177307,412.965820 613.326782,412.965820 
	C612.288757,409.337158 611.383484,406.172455 610.239380,402.241669 
z"/>
<path fill="#F2F2F2" opacity="1.000000" stroke="none" 
	d="
M720.238220,389.452271 
	C725.319397,406.161804 730.319458,422.479156 735.581116,439.650177 
	C732.519043,439.650177 730.039001,439.983978 727.715942,439.524353 
	C726.332886,439.250702 724.565552,437.980865 724.065247,436.723480 
	C722.422546,432.594635 721.280029,428.266785 720.000366,424.190674 
	C719.353088,424.009705 719.036499,423.842743 718.720764,423.844543 
	C713.062805,423.876984 706.130676,421.955780 702.114624,424.547974 
	C698.296692,427.012329 697.526917,434.199249 695.405090,439.338257 
	C692.283752,439.338257 689.032776,439.338257 685.208008,439.338257 
	C687.785950,430.840454 690.216370,422.781128 692.676575,414.730865 
	C695.782776,404.566956 699.056030,394.450775 701.944641,384.225677 
	C702.795349,381.214569 704.132141,379.964142 707.137695,380.405762 
	C707.463806,380.453674 707.803040,380.412964 708.136230,380.411682 
	C717.321838,380.376343 717.321838,380.376282 720.238220,389.452271 
M709.429932,395.170074 
	C707.701660,400.990143 705.973450,406.810211 704.119873,413.052307 
	C708.490662,413.052307 712.230713,413.052307 716.604858,413.052307 
	C715.040344,407.777405 713.669128,402.867645 712.090698,398.025482 
	C711.676514,396.754852 710.619873,395.693695 709.429932,395.170074 
z"/>
<path fill="#F4F4F4" opacity="1.000000" stroke="none" 
	d="
M450.678650,423.796661 
	C446.053192,423.796509 441.866486,423.533539 437.746185,423.941559 
	C436.326355,424.082123 434.433990,425.628021 433.862091,426.994324 
	C432.157471,431.066711 431.000885,435.368500 429.663635,439.478027 
	C426.129883,439.478027 422.995453,439.478027 419.160675,439.478027 
	C420.868011,433.702881 422.437164,428.242950 424.097107,422.810760 
	C428.016479,409.984863 432.073029,397.199738 435.850739,384.332550 
	C436.681396,381.503418 437.699036,380.312683 440.879456,380.327820 
	C451.292114,380.377411 451.288940,380.224915 454.382050,390.296326 
	C458.850647,404.846619 463.337372,419.391357 467.781769,433.949036 
	C468.297729,435.639008 468.594360,437.395935 469.000549,439.156067 
	C458.879150,440.564575 459.057678,440.505371 456.130524,431.676910 
	C455.172607,428.787903 456.327362,424.150360 450.678650,423.796661 
M439.164551,408.741364 
	C438.888977,410.119904 438.613403,411.498413 438.321350,412.959412 
	C442.437073,412.959412 446.170807,412.959412 450.521454,412.959412 
	C448.475647,406.160065 446.578430,399.854584 444.338196,392.408966 
	C442.520142,398.273438 441.011475,403.140015 439.164551,408.741364 
z"/>
<path fill="#F3F3F3" opacity="1.000000" stroke="none" 
	d="
M533.773071,384.742737 
	C550.288208,373.271088 570.199341,380.895935 573.798279,400.310608 
	C570.498718,400.924866 567.190918,401.540649 563.726257,402.185638 
	C562.783020,399.887299 562.134888,397.851013 561.148499,395.994415 
	C558.690186,391.367432 554.835999,388.781006 549.498535,388.818115 
	C544.164612,388.855164 540.047668,391.384186 537.977661,396.155548 
	C533.962891,405.409454 533.935303,414.912476 538.063416,424.164337 
	C540.224731,429.008148 544.580566,431.420837 549.712830,431.421509 
	C554.661499,431.422150 558.641113,428.958466 560.992859,424.398712 
	C561.895264,422.649170 562.592651,420.793793 563.620117,418.445862 
	C566.807007,419.354248 570.062683,420.282257 573.729675,421.327484 
	C571.032288,431.082031 565.534546,437.815826 556.007690,440.062500 
	C546.339722,442.342438 537.402893,440.390686 530.831482,432.204315 
	C520.381775,419.186432 521.715942,396.829254 533.773071,384.742737 
z"/>
<path fill="#EDEDED" opacity="1.000000" stroke="none" 
	d="
M655.302368,411.000305 
	C655.302368,417.110931 655.302368,422.721405 655.302368,428.959991 
	C661.149597,428.959991 666.414612,428.960785 671.679626,428.959808 
	C678.114502,428.958649 678.112854,428.957977 678.049744,435.491241 
	C678.038818,436.627380 678.048218,437.763702 678.048218,439.283600 
	C666.804626,439.283600 655.942017,439.283600 644.754395,439.283600 
	C644.754395,419.872162 644.754395,400.501587 644.754395,380.760864 
	C648.085327,380.760864 651.328369,380.760864 655.302429,380.760864 
	C655.302429,390.676300 655.302429,400.588257 655.302368,411.000305 
z"/>
<path fill="#F1F1F1" opacity="1.000000" stroke="none" 
	d="
M490.093262,439.655396 
	C487.296051,439.655396 484.984283,439.655396 482.287415,439.655396 
	C482.287415,419.997070 482.287415,400.627838 482.287415,380.831879 
	C485.493561,380.831879 488.847015,380.831879 492.654785,380.831879 
	C492.654785,396.747131 492.654785,412.489471 492.654785,428.975433 
	C498.485565,428.975433 503.923798,429.371490 509.276093,428.862793 
	C514.516602,428.364746 516.301575,430.224091 515.439575,435.216339 
	C515.219910,436.488495 515.241577,437.802307 515.113831,439.655426 
	C506.787415,439.655426 498.683075,439.655426 490.093262,439.655396 
z"/>
<path fill="#F9F9F9" opacity="1.000000" stroke="none" 
	d="
M303.555756,410.999634 
	C303.555786,400.725464 303.555786,390.951294 303.555786,380.810181 
	C307.184845,380.810181 310.399872,380.810181 313.882690,380.810181 
	C313.882690,400.257904 313.882690,419.639618 313.882690,439.363770 
	C310.627808,439.363770 307.406158,439.363770 303.555725,439.363770 
	C303.555725,430.013733 303.555725,420.756683 303.555756,410.999634 
z"/>
<path fill="#030303" opacity="1.000000" stroke="none" 
	d="
M532.165222,148.944916 
	C554.192871,194.099701 545.625793,244.924820 510.163757,280.658447 
	C479.033783,312.026917 440.715973,325.701508 397.205200,325.286163 
	C358.317627,324.914886 323.566559,312.516541 294.530060,286.077332 
	C242.002884,238.248611 241.176758,163.159119 292.958618,114.605110 
	C328.297302,81.469284 371.083466,69.875351 418.471802,74.989090 
	C460.817444,79.558655 496.067535,97.967674 521.994019,132.497238 
	C525.775146,137.533035 528.683350,143.224243 532.165222,148.944916 
M482.000122,115.784744 
	C475.377289,111.104416 469.290375,105.246780 462.039520,101.946129 
	C429.415466,87.095474 395.368408,85.829834 360.804779,93.583336 
	C344.860718,97.160004 329.914124,103.253609 317.791534,114.715767 
	C306.352142,125.531952 304.269867,139.816589 312.835449,152.729248 
	C316.646301,158.474106 321.465668,163.814316 326.723999,168.283020 
	C340.140778,179.685028 355.424652,188.282394 371.566589,195.189651 
	C389.015198,202.656021 406.724213,209.512924 424.195557,216.928040 
	C426.255859,217.802460 428.304962,220.258469 429.049133,222.430252 
	C434.551483,238.489151 439.714935,254.664078 445.007324,270.795166 
	C445.495605,272.283447 446.139648,273.720612 446.880554,275.613800 
	C451.001953,273.399048 454.599030,271.466034 458.354279,269.448059 
	C440.189514,213.620667 422.196899,158.322357 403.990509,102.367050 
	C417.503967,102.764069 429.745850,104.694931 441.809143,108.085518 
	C453.996796,111.511070 464.850647,117.323418 474.360016,126.240295 
	C477.222809,122.682953 479.710602,119.591568 482.000122,115.784744 
M490.440796,255.240005 
	C484.513275,238.248322 470.925751,228.553513 456.422058,218.965561 
	C458.138245,230.283264 461.672821,237.522980 468.720001,244.815842 
	C470.105774,246.249908 471.382782,247.800415 472.607971,249.376480 
	C481.224731,260.460938 480.327789,270.241882 468.474335,277.789124 
	C459.881073,283.260559 450.462524,288.207001 440.725983,290.969940 
	C409.122589,299.937988 377.458923,299.486298 346.693817,287.074493 
	C338.842072,283.906769 331.891510,278.505432 324.100769,273.877197 
	C321.929565,276.309692 319.227051,279.337463 316.509277,282.382355 
	C324.552979,291.338013 334.270935,296.670868 344.822388,300.579163 
	C367.709564,309.056671 391.449158,311.495544 415.599487,309.320160 
	C436.181641,307.466125 456.058197,302.705780 473.416138,290.725311 
	C485.457855,282.414062 493.981537,272.088287 490.440796,255.240005 
M356.077148,222.445297 
	C352.063629,234.760193 348.044891,247.073410 344.038116,259.390503 
	C340.428070,270.487976 340.432648,270.492828 351.503906,274.949707 
	C351.766815,275.055573 352.138214,274.892059 352.720764,274.823273 
	C353.228027,273.392151 353.809265,271.857300 354.318634,270.298950 
	C359.686096,253.877869 365.044586,237.453827 370.400391,221.028931 
	C374.098633,209.687485 374.095337,209.685440 362.570618,205.828751 
	C362.439941,205.785034 362.253937,205.906525 361.489502,206.118362 
	C359.830261,211.075562 358.056824,216.373871 356.077148,222.445297 
z"/>
<path fill="#040404" opacity="1.000000" stroke="none" 
	d="
M351.824036,429.466858 
	C340.509247,424.253235 340.638885,401.511047 347.421295,394.004181 
	C354.066437,386.649170 366.066071,388.447845 370.029816,397.799988 
	C373.468292,405.912842 373.408630,414.335724 369.980438,422.467773 
	C366.953735,429.647400 360.132477,432.195770 351.824036,429.466858 
z"/>
<path fill="#090909" opacity="1.000000" stroke="none" 
	d="
M208.248749,391.460754 
	C212.603821,396.132935 213.544785,401.492920 210.819168,406.248718 
	C206.790359,413.278473 200.114182,410.065857 194.048889,410.960968 
	C194.048889,403.712219 194.048889,397.143890 194.048889,389.360382 
	C198.681061,389.983246 203.298935,390.604187 208.248749,391.460754 
z"/>
<path fill="#141414" opacity="1.000000" stroke="none" 
	d="
M610.358826,402.624695 
	C611.383484,406.172455 612.288757,409.337158 613.326782,412.965820 
	C609.177307,412.965820 605.482117,412.965820 600.940308,412.965820 
	C602.858276,406.527466 604.695923,400.358612 606.533630,394.189728 
	C606.884155,394.175873 607.234680,394.161987 607.585205,394.148102 
	C608.469910,396.845978 609.354614,399.543823 610.358826,402.624695 
z"/>
<path fill="#101010" opacity="1.000000" stroke="none" 
	d="
M709.644104,394.853210 
	C710.619873,395.693695 711.676514,396.754852 712.090698,398.025482 
	C713.669128,402.867645 715.040344,407.777405 716.604858,413.052307 
	C712.230713,413.052307 708.490662,413.052307 704.119873,413.052307 
	C705.973450,406.810211 707.701660,400.990143 709.644104,394.853210 
z"/>
<path fill="#090909" opacity="1.000000" stroke="none" 
	d="
M439.333679,408.373993 
	C441.011475,403.140015 442.520142,398.273438 444.338196,392.408966 
	C446.578430,399.854584 448.475647,406.160065 450.521454,412.959412 
	C446.170807,412.959412 442.437073,412.959412 438.321350,412.959412 
	C438.613403,411.498413 438.888977,410.119904 439.333679,408.373993 
z"/>
<path fill="#F6F6F6" opacity="1.000000" stroke="none" 
	d="
M482.099274,116.142464 
	C479.710602,119.591568 477.222809,122.682953 474.360016,126.240295 
	C464.850647,117.323418 453.996796,111.511070 441.809143,108.085518 
	C429.745850,104.694931 417.503967,102.764069 403.990509,102.367050 
	C422.196899,158.322357 440.189514,213.620667 458.354279,269.448059 
	C454.599030,271.466034 451.001953,273.399048 446.880554,275.613800 
	C446.139648,273.720612 445.495605,272.283447 445.007324,270.795166 
	C439.714935,254.664078 434.551483,238.489151 429.049133,222.430252 
	C428.304962,220.258469 426.255859,217.802460 424.195557,216.928040 
	C406.724213,209.512924 389.015198,202.656021 371.566589,195.189651 
	C355.424652,188.282394 340.140778,179.685028 326.723999,168.283020 
	C321.465668,163.814316 316.646301,158.474106 312.835449,152.729248 
	C304.269867,139.816589 306.352142,125.531952 317.791534,114.715767 
	C329.914124,103.253609 344.860718,97.160004 360.804779,93.583336 
	C395.368408,85.829834 429.415466,87.095474 462.039520,101.946129 
	C469.290375,105.246780 475.377289,111.104416 482.099274,116.142464 
M368.758667,179.363312 
	C369.601013,178.170258 370.796082,177.093445 371.233215,175.766876 
	C378.771576,152.889465 386.221558,129.982910 393.669495,107.075775 
	C394.108521,105.725586 394.366333,104.316490 394.826813,102.456825 
	C379.027985,102.607979 364.109680,104.991371 350.003540,110.711639 
	C342.549622,113.734314 335.348602,117.882050 328.848694,122.636444 
	C319.483582,129.486633 318.578735,137.858490 324.993286,147.430435 
	C326.189331,149.215118 327.558594,150.918655 329.049744,152.465057 
	C340.190979,164.019272 354.009094,171.675262 368.758667,179.363312 
M401.421204,137.238770 
	C400.888916,135.841766 400.356598,134.444778 399.413849,131.970627 
	C393.373840,150.511017 387.732574,167.827423 381.948914,185.580917 
	C395.336884,190.791260 408.361389,195.860138 422.310425,201.288834 
	C415.234070,179.523911 408.477661,158.743027 401.421204,137.238770 
z"/>
<path fill="#F6F6F6" opacity="1.000000" stroke="none" 
	d="
M490.556335,255.628967 
	C493.981537,272.088287 485.457855,282.414062 473.416138,290.725311 
	C456.058197,302.705780 436.181641,307.466125 415.599487,309.320160 
	C391.449158,311.495544 367.709564,309.056671 344.822388,300.579163 
	C334.270935,296.670868 324.552979,291.338013 316.509277,282.382355 
	C319.227051,279.337463 321.929565,276.309692 324.100769,273.877197 
	C331.891510,278.505432 338.842072,283.906769 346.693817,287.074493 
	C377.458923,299.486298 409.122589,299.937988 440.725983,290.969940 
	C450.462524,288.207001 459.881073,283.260559 468.474335,277.789124 
	C480.327789,270.241882 481.224731,260.460938 472.607971,249.376480 
	C471.382782,247.800415 470.105774,246.249908 468.720001,244.815842 
	C461.672821,237.522980 458.138245,230.283264 456.422058,218.965561 
	C470.925751,228.553513 484.513275,238.248322 490.556335,255.628967 
z"/>
<path fill="#F4F4F4" opacity="1.000000" stroke="none" 
	d="
M356.180267,222.058746 
	C358.056824,216.373871 359.830261,211.075562 361.489502,206.118362 
	C362.253937,205.906525 362.439941,205.785034 362.570618,205.828751 
	C374.095337,209.685440 374.098633,209.687485 370.400391,221.028931 
	C365.044586,237.453827 359.686096,253.877869 354.318634,270.298950 
	C353.809265,271.857300 353.228027,273.392151 352.720764,274.823273 
	C352.138214,274.892059 351.766815,275.055573 351.503906,274.949707 
	C340.432648,270.492828 340.428070,270.487976 344.038116,259.390503 
	C348.044891,247.073410 352.063629,234.760193 356.180267,222.058746 
z"/>
<path fill="#040404" opacity="1.000000" stroke="none" 
	d="
M368.379456,179.216507 
	C354.009094,171.675262 340.190979,164.019272 329.049744,152.465057 
	C327.558594,150.918655 326.189331,149.215118 324.993286,147.430435 
	C318.578735,137.858490 319.483582,129.486633 328.848694,122.636444 
	C335.348602,117.882050 342.549622,113.734314 350.003540,110.711639 
	C364.109680,104.991371 379.027985,102.607979 394.826813,102.456825 
	C394.366333,104.316490 394.108521,105.725586 393.669495,107.075775 
	C386.221558,129.982910 378.771576,152.889465 371.233215,175.766876 
	C370.796082,177.093445 369.601013,178.170258 368.379456,179.216507 
z"/>
<path fill="#060606" opacity="1.000000" stroke="none" 
	d="
M401.571228,137.600449 
	C408.477661,158.743027 415.234070,179.523911 422.310425,201.288834 
	C408.361389,195.860138 395.336884,190.791260 381.948914,185.580917 
	C387.732574,167.827423 393.373840,150.511017 399.413849,131.970627 
	C400.356598,134.444778 400.888916,135.841766 401.571228,137.600449 
z"/>
</svg>